<mxfile host="app.diagrams.net" agent="Mozilla/5.0 (Macintosh; Intel Mac OS X 10_15_7) AppleWebKit/605.1.15 (KHTML, like Gecko) Version/18.0.1 Safari/605.1.15" version="26.0.11">
  <diagram name="第 1 页" id="XF0JXMAuD8Xr6m7Hz_5N">
    <mxGraphModel dx="2417" dy="1078" grid="1" gridSize="10" guides="1" tooltips="1" connect="1" arrows="1" fold="1" page="1" pageScale="1" pageWidth="827" pageHeight="1169" math="0" shadow="0">
      <root>
        <mxCell id="0" />
        <mxCell id="1" parent="0" />
        <mxCell id="ks6v4376luU7la1C0sNh-1" value="" style="rounded=0;whiteSpace=wrap;html=1;" vertex="1" parent="1">
          <mxGeometry x="-360" y="400" width="720" height="600" as="geometry" />
        </mxCell>
        <mxCell id="ks6v4376luU7la1C0sNh-4" value="" style="endArrow=classic;startArrow=classic;html=1;rounded=0;endSize=2;startSize=2;entryX=0;entryY=1;entryDx=0;entryDy=0;" edge="1" parent="1">
          <mxGeometry width="50" height="50" relative="1" as="geometry">
            <mxPoint x="-360" y="370" as="sourcePoint" />
            <mxPoint x="360" y="370" as="targetPoint" />
            <Array as="points" />
          </mxGeometry>
        </mxCell>
        <mxCell id="ks6v4376luU7la1C0sNh-5" value="" style="endArrow=classic;startArrow=classic;html=1;rounded=0;startSize=2;endSize=2;" edge="1" parent="1">
          <mxGeometry width="50" height="50" relative="1" as="geometry">
            <mxPoint x="400" y="1001" as="sourcePoint" />
            <mxPoint x="400" y="399" as="targetPoint" />
          </mxGeometry>
        </mxCell>
        <mxCell id="ks6v4376luU7la1C0sNh-6" value="&lt;font style=&quot;font-size: 20px;&quot;&gt;12&lt;/font&gt;" style="text;strokeColor=none;align=center;fillColor=none;html=1;verticalAlign=middle;whiteSpace=wrap;rounded=0;" vertex="1" parent="1">
          <mxGeometry x="-8.5" y="340" width="17" height="20" as="geometry" />
        </mxCell>
        <mxCell id="ks6v4376luU7la1C0sNh-12" value="&lt;font style=&quot;font-size: 20px;&quot;&gt;10&lt;/font&gt;" style="text;strokeColor=none;align=center;fillColor=none;html=1;verticalAlign=middle;whiteSpace=wrap;rounded=0;" vertex="1" parent="1">
          <mxGeometry x="405" y="680" width="17" height="20" as="geometry" />
        </mxCell>
        <mxCell id="ks6v4376luU7la1C0sNh-24" value="" style="endArrow=classic;startArrow=classic;html=1;rounded=0;startSize=2;endSize=2;" edge="1" parent="1">
          <mxGeometry width="50" height="50" relative="1" as="geometry">
            <mxPoint x="-400" y="630" as="sourcePoint" />
            <mxPoint x="-400" y="399" as="targetPoint" />
          </mxGeometry>
        </mxCell>
        <mxCell id="ks6v4376luU7la1C0sNh-26" value="&lt;span style=&quot;font-size: 20px;&quot;&gt;3.9&lt;/span&gt;" style="text;strokeColor=none;align=center;fillColor=none;html=1;verticalAlign=middle;whiteSpace=wrap;rounded=0;" vertex="1" parent="1">
          <mxGeometry x="-429" y="470" width="32" height="30" as="geometry" />
        </mxCell>
        <mxCell id="ks6v4376luU7la1C0sNh-28" value="" style="endArrow=classic;startArrow=classic;html=1;rounded=0;startSize=2;endSize=2;" edge="1" parent="1">
          <mxGeometry width="50" height="50" relative="1" as="geometry">
            <mxPoint x="-398" y="770" as="sourcePoint" />
            <mxPoint x="-398.18" y="640" as="targetPoint" />
          </mxGeometry>
        </mxCell>
        <mxCell id="ks6v4376luU7la1C0sNh-29" value="&lt;span style=&quot;font-size: 20px;&quot;&gt;2.6&lt;/span&gt;" style="text;strokeColor=none;align=center;fillColor=none;html=1;verticalAlign=middle;whiteSpace=wrap;rounded=0;" vertex="1" parent="1">
          <mxGeometry x="-429" y="700" width="32" height="30" as="geometry" />
        </mxCell>
        <mxCell id="ks6v4376luU7la1C0sNh-30" value="" style="endArrow=classic;startArrow=classic;html=1;rounded=0;startSize=2;endSize=2;" edge="1" parent="1">
          <mxGeometry width="50" height="50" relative="1" as="geometry">
            <mxPoint x="-400" y="1000" as="sourcePoint" />
            <mxPoint x="-400" y="780" as="targetPoint" />
          </mxGeometry>
        </mxCell>
        <mxCell id="ks6v4376luU7la1C0sNh-31" value="&lt;span style=&quot;font-size: 20px;&quot;&gt;3.5&lt;/span&gt;" style="text;strokeColor=none;align=center;fillColor=none;html=1;verticalAlign=middle;whiteSpace=wrap;rounded=0;" vertex="1" parent="1">
          <mxGeometry x="-429" y="870" width="32" height="30" as="geometry" />
        </mxCell>
        <mxCell id="ks6v4376luU7la1C0sNh-32" value="&lt;span style=&quot;font-size: 20px;&quot;&gt;卫生间&lt;/span&gt;" style="text;strokeColor=none;align=center;fillColor=none;html=1;verticalAlign=middle;whiteSpace=wrap;rounded=0;" vertex="1" parent="1">
          <mxGeometry x="-60.5" y="460" width="31" height="90" as="geometry" />
        </mxCell>
        <mxCell id="ks6v4376luU7la1C0sNh-33" value="&lt;span style=&quot;font-size: 20px;&quot;&gt;厨房&lt;/span&gt;" style="text;strokeColor=none;align=center;fillColor=none;html=1;verticalAlign=middle;whiteSpace=wrap;rounded=0;" vertex="1" parent="1">
          <mxGeometry x="-260" y="480" width="30" height="50" as="geometry" />
        </mxCell>
        <mxCell id="ks6v4376luU7la1C0sNh-35" value="&lt;span style=&quot;font-size: 20px;&quot;&gt;房间&lt;/span&gt;" style="text;strokeColor=none;align=center;fillColor=none;html=1;verticalAlign=middle;whiteSpace=wrap;rounded=0;" vertex="1" parent="1">
          <mxGeometry x="207" y="480" width="26" height="50" as="geometry" />
        </mxCell>
        <mxCell id="ks6v4376luU7la1C0sNh-36" value="&lt;span style=&quot;font-size: 20px;&quot;&gt;客厅&lt;/span&gt;" style="text;strokeColor=none;align=center;fillColor=none;html=1;verticalAlign=middle;whiteSpace=wrap;rounded=0;" vertex="1" parent="1">
          <mxGeometry x="109.09" y="820" width="26" height="50" as="geometry" />
        </mxCell>
        <mxCell id="ks6v4376luU7la1C0sNh-37" value="&lt;span style=&quot;font-size: 20px;&quot;&gt;房间&lt;/span&gt;" style="text;strokeColor=none;align=center;fillColor=none;html=1;verticalAlign=middle;whiteSpace=wrap;rounded=0;" vertex="1" parent="1">
          <mxGeometry x="-258" y="880" width="26" height="50" as="geometry" />
        </mxCell>
        <mxCell id="ks6v4376luU7la1C0sNh-38" value="" style="endArrow=none;html=1;rounded=0;exitX=1;exitY=0.5;exitDx=0;exitDy=0;exitPerimeter=0;" edge="1" parent="1">
          <mxGeometry width="50" height="50" relative="1" as="geometry">
            <mxPoint x="70" y="625" as="sourcePoint" />
            <mxPoint x="70" y="400" as="targetPoint" />
            <Array as="points">
              <mxPoint x="70" y="470" />
            </Array>
          </mxGeometry>
        </mxCell>
        <mxCell id="ks6v4376luU7la1C0sNh-39" value="" style="endArrow=none;html=1;rounded=0;exitX=-0.004;exitY=0.005;exitDx=0;exitDy=0;exitPerimeter=0;" edge="1" parent="1">
          <mxGeometry width="50" height="50" relative="1" as="geometry">
            <mxPoint x="-99.85000000000015" y="558.2429599999999" as="sourcePoint" />
            <mxPoint x="-100.00000000000001" y="399.89" as="targetPoint" />
          </mxGeometry>
        </mxCell>
        <mxCell id="ks6v4376luU7la1C0sNh-42" value="" style="endArrow=none;html=1;rounded=0;entryX=-0.003;entryY=1.002;entryDx=0;entryDy=0;entryPerimeter=0;" edge="1" parent="1">
          <mxGeometry width="50" height="50" relative="1" as="geometry">
            <mxPoint x="70" y="560" as="sourcePoint" />
            <mxPoint x="-69.93999999999994" y="558.32472" as="targetPoint" />
          </mxGeometry>
        </mxCell>
        <mxCell id="ks6v4376luU7la1C0sNh-46" value="" style="endArrow=none;html=1;rounded=0;entryX=0.375;entryY=0.3;entryDx=0;entryDy=0;entryPerimeter=0;" edge="1" parent="1">
          <mxGeometry width="50" height="50" relative="1" as="geometry">
            <mxPoint x="-130" y="770.67" as="sourcePoint" />
            <mxPoint x="-360" y="770.67" as="targetPoint" />
          </mxGeometry>
        </mxCell>
        <mxCell id="ks6v4376luU7la1C0sNh-48" value="" style="shape=crossbar;whiteSpace=wrap;html=1;rounded=1;direction=south;" vertex="1" parent="1">
          <mxGeometry x="-340" y="640.67" width="20" height="120" as="geometry" />
        </mxCell>
        <mxCell id="ks6v4376luU7la1C0sNh-49" value="" style="shape=crossbar;whiteSpace=wrap;html=1;rounded=1;direction=south;" vertex="1" parent="1">
          <mxGeometry x="-310" y="640.67" width="20" height="120" as="geometry" />
        </mxCell>
        <mxCell id="ks6v4376luU7la1C0sNh-50" value="" style="shape=crossbar;whiteSpace=wrap;html=1;rounded=1;direction=south;" vertex="1" parent="1">
          <mxGeometry x="-278" y="640.67" width="20" height="120" as="geometry" />
        </mxCell>
        <mxCell id="ks6v4376luU7la1C0sNh-51" value="" style="shape=crossbar;whiteSpace=wrap;html=1;rounded=1;direction=south;" vertex="1" parent="1">
          <mxGeometry x="-250" y="640.67" width="20" height="120" as="geometry" />
        </mxCell>
        <mxCell id="ks6v4376luU7la1C0sNh-52" value="" style="shape=crossbar;whiteSpace=wrap;html=1;rounded=1;direction=south;" vertex="1" parent="1">
          <mxGeometry x="-220" y="640.67" width="20" height="120" as="geometry" />
        </mxCell>
        <mxCell id="ks6v4376luU7la1C0sNh-54" value="" style="shape=crossbar;whiteSpace=wrap;html=1;rounded=1;direction=south;" vertex="1" parent="1">
          <mxGeometry x="-190" y="640.67" width="20" height="120" as="geometry" />
        </mxCell>
        <mxCell id="ks6v4376luU7la1C0sNh-56" value="" style="shape=mxgraph.signs.travel.upstairs;html=1;pointerEvents=1;fillColor=#000000;strokeColor=none;verticalLabelPosition=bottom;verticalAlign=top;align=center;direction=north;" vertex="1" parent="1">
          <mxGeometry x="-340" y="640.67" width="170" height="120" as="geometry" />
        </mxCell>
        <mxCell id="ks6v4376luU7la1C0sNh-60" value="" style="endArrow=none;html=1;rounded=0;" edge="1" parent="1">
          <mxGeometry width="50" height="50" relative="1" as="geometry">
            <mxPoint x="-120" y="1000" as="sourcePoint" />
            <mxPoint x="-120" y="820" as="targetPoint" />
          </mxGeometry>
        </mxCell>
        <mxCell id="ks6v4376luU7la1C0sNh-61" value="" style="endArrow=none;html=1;rounded=0;" edge="1" parent="1" target="ks6v4376luU7la1C0sNh-1">
          <mxGeometry width="50" height="50" relative="1" as="geometry">
            <mxPoint x="-90" y="1000" as="sourcePoint" />
            <mxPoint x="-90" y="820" as="targetPoint" />
          </mxGeometry>
        </mxCell>
        <mxCell id="ks6v4376luU7la1C0sNh-62" value="" style="endArrow=none;html=1;rounded=0;" edge="1" parent="1">
          <mxGeometry width="50" height="50" relative="1" as="geometry">
            <mxPoint x="-120" y="1160" as="sourcePoint" />
            <mxPoint x="-120" y="990" as="targetPoint" />
          </mxGeometry>
        </mxCell>
        <mxCell id="ks6v4376luU7la1C0sNh-63" value="" style="endArrow=classic;startArrow=classic;html=1;rounded=0;startSize=2;endSize=2;" edge="1" parent="1">
          <mxGeometry width="50" height="50" relative="1" as="geometry">
            <mxPoint x="180" y="1160" as="sourcePoint" />
            <mxPoint x="180.82" y="1010" as="targetPoint" />
          </mxGeometry>
        </mxCell>
        <mxCell id="ks6v4376luU7la1C0sNh-64" value="&lt;span style=&quot;font-size: 20px;&quot;&gt;2.7&lt;/span&gt;" style="text;strokeColor=none;align=center;fillColor=none;html=1;verticalAlign=middle;whiteSpace=wrap;rounded=0;" vertex="1" parent="1">
          <mxGeometry x="180" y="1070" width="32" height="30" as="geometry" />
        </mxCell>
        <mxCell id="ks6v4376luU7la1C0sNh-65" value="" style="endArrow=none;html=1;rounded=0;entryX=0.375;entryY=0.3;entryDx=0;entryDy=0;entryPerimeter=0;" edge="1" parent="1">
          <mxGeometry width="50" height="50" relative="1" as="geometry">
            <mxPoint x="170" y="1160" as="sourcePoint" />
            <mxPoint x="-120" y="1160" as="targetPoint" />
          </mxGeometry>
        </mxCell>
        <mxCell id="ks6v4376luU7la1C0sNh-66" value="&lt;span style=&quot;font-size: 20px;&quot;&gt;4.8&lt;/span&gt;" style="text;strokeColor=none;align=center;fillColor=none;html=1;verticalAlign=middle;whiteSpace=wrap;rounded=0;" vertex="1" parent="1">
          <mxGeometry x="8.5" y="1169" width="32" height="30" as="geometry" />
        </mxCell>
        <mxCell id="ks6v4376luU7la1C0sNh-67" value="" style="endArrow=none;html=1;rounded=0;" edge="1" parent="1">
          <mxGeometry width="50" height="50" relative="1" as="geometry">
            <mxPoint x="170" y="1160" as="sourcePoint" />
            <mxPoint x="170" y="1000" as="targetPoint" />
          </mxGeometry>
        </mxCell>
        <mxCell id="ks6v4376luU7la1C0sNh-68" value="柱" style="ellipse;whiteSpace=wrap;html=1;aspect=fixed;" vertex="1" parent="1">
          <mxGeometry x="-100" y="1120" width="30" height="30" as="geometry" />
        </mxCell>
        <mxCell id="ks6v4376luU7la1C0sNh-69" value="柱" style="ellipse;whiteSpace=wrap;html=1;aspect=fixed;" vertex="1" parent="1">
          <mxGeometry x="120" y="1120" width="30" height="30" as="geometry" />
        </mxCell>
        <mxCell id="ks6v4376luU7la1C0sNh-70" value="" style="endArrow=classic;startArrow=classic;html=1;rounded=0;endSize=2;startSize=2;" edge="1" parent="1">
          <mxGeometry width="50" height="50" relative="1" as="geometry">
            <mxPoint x="-360" y="1020" as="sourcePoint" />
            <mxPoint x="-130" y="1020" as="targetPoint" />
            <Array as="points" />
          </mxGeometry>
        </mxCell>
        <mxCell id="ks6v4376luU7la1C0sNh-72" value="&lt;span style=&quot;font-size: 20px;&quot;&gt;4.0&lt;/span&gt;" style="text;strokeColor=none;align=center;fillColor=none;html=1;verticalAlign=middle;whiteSpace=wrap;rounded=0;" vertex="1" parent="1">
          <mxGeometry x="-256" y="1020" width="32" height="30" as="geometry" />
        </mxCell>
        <mxCell id="ks6v4376luU7la1C0sNh-73" value="" style="endArrow=classic;startArrow=classic;html=1;rounded=0;endSize=2;startSize=2;" edge="1" parent="1">
          <mxGeometry width="50" height="50" relative="1" as="geometry">
            <mxPoint x="70" y="390" as="sourcePoint" />
            <mxPoint x="355.5" y="390" as="targetPoint" />
            <Array as="points" />
          </mxGeometry>
        </mxCell>
        <mxCell id="ks6v4376luU7la1C0sNh-75" value="&lt;font style=&quot;font-size: 16px;&quot;&gt;4.8&lt;/font&gt;" style="text;strokeColor=none;align=center;fillColor=none;html=1;verticalAlign=middle;whiteSpace=wrap;rounded=0;" vertex="1" parent="1">
          <mxGeometry x="188" y="370" width="45" height="20" as="geometry" />
        </mxCell>
        <mxCell id="ks6v4376luU7la1C0sNh-76" value="" style="endArrow=classic;startArrow=classic;html=1;rounded=0;endSize=2;startSize=2;" edge="1" parent="1">
          <mxGeometry width="50" height="50" relative="1" as="geometry">
            <mxPoint x="-100" y="390" as="sourcePoint" />
            <mxPoint x="70" y="390" as="targetPoint" />
            <Array as="points" />
          </mxGeometry>
        </mxCell>
        <mxCell id="ks6v4376luU7la1C0sNh-78" value="&lt;font style=&quot;font-size: 16px;&quot;&gt;2.8&lt;/font&gt;" style="text;strokeColor=none;align=center;fillColor=none;html=1;verticalAlign=middle;whiteSpace=wrap;rounded=0;" vertex="1" parent="1">
          <mxGeometry x="-53.5" y="370" width="17" height="20" as="geometry" />
        </mxCell>
        <mxCell id="ks6v4376luU7la1C0sNh-79" value="" style="endArrow=classic;startArrow=classic;html=1;rounded=0;endSize=2;startSize=2;" edge="1" parent="1">
          <mxGeometry width="50" height="50" relative="1" as="geometry">
            <mxPoint x="-355" y="390" as="sourcePoint" />
            <mxPoint x="-100" y="390" as="targetPoint" />
            <Array as="points" />
          </mxGeometry>
        </mxCell>
        <mxCell id="ks6v4376luU7la1C0sNh-80" value="&lt;font style=&quot;font-size: 15px;&quot;&gt;4.4&lt;/font&gt;" style="text;strokeColor=none;align=center;fillColor=none;html=1;verticalAlign=middle;whiteSpace=wrap;rounded=0;" vertex="1" parent="1">
          <mxGeometry x="-256" y="365" width="32" height="30" as="geometry" />
        </mxCell>
        <mxCell id="ks6v4376luU7la1C0sNh-81" value="" style="endArrow=classic;startArrow=classic;html=1;rounded=0;endSize=2;startSize=2;" edge="1" parent="1">
          <mxGeometry width="50" height="50" relative="1" as="geometry">
            <mxPoint x="-120" y="1169" as="sourcePoint" />
            <mxPoint x="170" y="1169" as="targetPoint" />
            <Array as="points" />
          </mxGeometry>
        </mxCell>
        <mxCell id="ks6v4376luU7la1C0sNh-82" value="" style="verticalLabelPosition=bottom;html=1;verticalAlign=top;align=center;shape=mxgraph.floorplan.doorDouble;aspect=fixed;direction=west;" vertex="1" parent="1">
          <mxGeometry x="-36.5" y="1000" width="131.76" height="70" as="geometry" />
        </mxCell>
        <mxCell id="ks6v4376luU7la1C0sNh-88" value="" style="verticalLabelPosition=bottom;html=1;verticalAlign=top;align=center;shape=mxgraph.floorplan.doorLeft;aspect=fixed;direction=east;" vertex="1" parent="1">
          <mxGeometry x="-181.87" y="768.8" width="60" height="63.74" as="geometry" />
        </mxCell>
        <mxCell id="ks6v4376luU7la1C0sNh-92" value="" style="endArrow=none;html=1;rounded=0;" edge="1" parent="1">
          <mxGeometry width="50" height="50" relative="1" as="geometry">
            <mxPoint x="360" y="636.4" as="sourcePoint" />
            <mxPoint x="120" y="636.67" as="targetPoint" />
          </mxGeometry>
        </mxCell>
        <mxCell id="ks6v4376luU7la1C0sNh-94" value="" style="endArrow=none;html=1;rounded=0;exitX=0;exitY=0.068;exitDx=0;exitDy=0;exitPerimeter=0;" edge="1" parent="1">
          <mxGeometry width="50" height="50" relative="1" as="geometry">
            <mxPoint x="72.55187999999998" y="637.44" as="sourcePoint" />
            <mxPoint x="-100" y="637.67" as="targetPoint" />
          </mxGeometry>
        </mxCell>
        <mxCell id="ks6v4376luU7la1C0sNh-95" value="" style="endArrow=none;html=1;rounded=0;entryX=0.005;entryY=1.025;entryDx=0;entryDy=0;entryPerimeter=0;exitX=0.884;exitY=0.007;exitDx=0;exitDy=0;exitPerimeter=0;" edge="1" parent="1" source="ks6v4376luU7la1C0sNh-105">
          <mxGeometry width="50" height="50" relative="1" as="geometry">
            <mxPoint x="-144" y="637.67" as="sourcePoint" />
            <mxPoint x="-360" y="637.4399999999999" as="targetPoint" />
          </mxGeometry>
        </mxCell>
        <mxCell id="ks6v4376luU7la1C0sNh-98" value="" style="verticalLabelPosition=bottom;html=1;verticalAlign=top;align=center;shape=mxgraph.floorplan.doorRight;aspect=fixed;direction=north;" vertex="1" parent="1">
          <mxGeometry x="-100" y="530" width="34.68" height="32.63" as="geometry" />
        </mxCell>
        <mxCell id="ks6v4376luU7la1C0sNh-103" value="" style="verticalLabelPosition=bottom;html=1;verticalAlign=top;align=center;shape=mxgraph.floorplan.doorRight;aspect=fixed;direction=north;" vertex="1" parent="1">
          <mxGeometry x="70" y="600.67" width="39.09" height="36.78" as="geometry" />
        </mxCell>
        <mxCell id="ks6v4376luU7la1C0sNh-105" value="" style="verticalLabelPosition=bottom;html=1;verticalAlign=top;align=center;shape=mxgraph.floorplan.doorRight;aspect=fixed;direction=west;" vertex="1" parent="1">
          <mxGeometry x="-137.64999999999998" y="597.4499999999999" width="37.65" height="40" as="geometry" />
        </mxCell>
        <mxCell id="ks6v4376luU7la1C0sNh-106" value="" style="endArrow=classic;startArrow=classic;html=1;rounded=0;startSize=2;endSize=2;" edge="1" parent="1">
          <mxGeometry width="50" height="50" relative="1" as="geometry">
            <mxPoint x="370" y="1000" as="sourcePoint" />
            <mxPoint x="370" y="640" as="targetPoint" />
          </mxGeometry>
        </mxCell>
        <mxCell id="ks6v4376luU7la1C0sNh-107" value="&lt;font style=&quot;font-size: 15px;&quot;&gt;6.1&lt;/font&gt;" style="text;strokeColor=none;align=center;fillColor=none;html=1;verticalAlign=middle;whiteSpace=wrap;rounded=0;" vertex="1" parent="1">
          <mxGeometry x="370" y="780" width="27" height="20" as="geometry" />
        </mxCell>
        <mxCell id="ks6v4376luU7la1C0sNh-108" value="&lt;span style=&quot;font-size: 20px;&quot;&gt;大门&lt;/span&gt;" style="text;strokeColor=none;align=center;fillColor=none;html=1;verticalAlign=middle;whiteSpace=wrap;rounded=0;" vertex="1" parent="1">
          <mxGeometry x="3.9200000000000017" y="950" width="50.91" height="50" as="geometry" />
        </mxCell>
      </root>
    </mxGraphModel>
  </diagram>
</mxfile>
